<svg xmlns="http://www.w3.org/2000/svg" xmlns:xlink="http://www.w3.org/1999/xlink" width="500" zoomAndPan="magnify" viewBox="0 0 375 374.999991" height="500" preserveAspectRatio="xMidYMid meet" version="1.0"><defs><g/></defs><rect x="-37.5" width="450" fill="#ffffff" y="-37.499999" height="449.999989" fill-opacity="1"/><rect x="-37.5" width="450" fill="#efe8dd" y="-37.499999" height="449.999989" fill-opacity="1"/><g fill="#ff3131" fill-opacity="1"><g transform="translate(86.084679, 216.80327)"><g><path d="M 5.921875 -1.03125 L 4.296875 -60.078125 C 4.410156 -60.140625 4.695312 -60.226562 5.15625 -60.34375 C 5.613281 -60.457031 5.898438 -60.539062 6.015625 -60.59375 C 9.210938 -60.539062 12.367188 -60.570312 15.484375 -60.6875 C 18.609375 -60.800781 21.742188 -60.859375 24.890625 -60.859375 C 27.347656 -60.859375 29.835938 -60.628906 32.359375 -60.171875 C 34.878906 -59.710938 37.210938 -58.851562 39.359375 -57.59375 C 41.503906 -56.332031 43.234375 -54.53125 44.546875 -52.1875 C 45.054688 -51.207031 45.507812 -50.347656 45.90625 -49.609375 C 46.3125 -48.867188 46.601562 -48.007812 46.78125 -47.03125 C 46.78125 -46.800781 46.789062 -46.328125 46.8125 -45.609375 C 46.84375 -44.898438 46.859375 -44.429688 46.859375 -44.203125 C 46.859375 -42.429688 46.742188 -40.84375 46.515625 -39.4375 C 46.285156 -38.03125 45.941406 -36.414062 45.484375 -34.59375 C 44.628906 -31.15625 43.097656 -28.09375 40.890625 -25.40625 C 38.691406 -22.71875 35.847656 -20.800781 32.359375 -19.65625 C 32.296875 -19.59375 32.234375 -19.5625 32.171875 -19.5625 C 32.117188 -19.5625 32.066406 -19.535156 32.015625 -19.484375 C 31.441406 -19.253906 30.796875 -19.023438 30.078125 -18.796875 C 29.367188 -18.566406 28.671875 -18.453125 27.984375 -18.453125 C 27.804688 -18.453125 27.398438 -18.453125 26.765625 -18.453125 C 26.140625 -18.453125 25.523438 -18.453125 24.921875 -18.453125 C 24.328125 -18.453125 23.914062 -18.453125 23.6875 -18.453125 C 23.6875 -18.453125 23.671875 -18.304688 23.640625 -18.015625 C 23.617188 -17.734375 23.609375 -17.566406 23.609375 -17.515625 L 23.953125 -1.890625 C 24.066406 -1.140625 23.5625 -0.648438 22.4375 -0.421875 C 21.320312 -0.191406 19.847656 -0.101562 18.015625 -0.15625 C 16.191406 -0.21875 14.21875 -0.347656 12.09375 -0.546875 C 9.976562 -0.753906 7.921875 -0.914062 5.921875 -1.03125 Z M 22.234375 -49.09375 L 22.234375 -32.78125 C 23.148438 -32.78125 24.078125 -33.164062 25.015625 -33.9375 C 25.960938 -34.71875 26.765625 -35.632812 27.421875 -36.6875 C 28.078125 -37.75 28.40625 -38.679688 28.40625 -39.484375 L 28.40625 -43.59375 C 28.40625 -43.59375 28.375 -43.664062 28.3125 -43.8125 C 28.257812 -43.957031 28.234375 -44.054688 28.234375 -44.109375 C 28.179688 -44.222656 28.082031 -44.421875 27.9375 -44.703125 C 27.789062 -44.992188 27.691406 -45.171875 27.640625 -45.234375 C 27.578125 -45.347656 27.53125 -45.429688 27.5 -45.484375 C 27.476562 -45.546875 27.4375 -45.601562 27.375 -45.65625 C 26.632812 -46.976562 26.003906 -47.867188 25.484375 -48.328125 C 24.972656 -48.785156 23.890625 -49.039062 22.234375 -49.09375 Z M 22.234375 -49.09375 "/></g></g></g><g fill="#ff3131" fill-opacity="1"><g transform="translate(134.667295, 216.80327)"><g><path d="M 1.71875 -0.765625 L 18.703125 -54.5 C 18.992188 -56.332031 19.664062 -57.519531 20.71875 -58.0625 C 21.78125 -58.601562 23.398438 -58.90625 25.578125 -58.96875 C 25.804688 -59.019531 26.550781 -59.0625 27.8125 -59.09375 C 29.070312 -59.125 30.429688 -59.148438 31.890625 -59.171875 C 33.347656 -59.203125 34.421875 -59.21875 35.109375 -59.21875 C 35.222656 -59.21875 35.675781 -59.21875 36.46875 -59.21875 C 37.269531 -59.21875 37.84375 -59.21875 38.1875 -59.21875 C 38.476562 -59.21875 39.023438 -59.21875 39.828125 -59.21875 C 40.628906 -59.21875 41.144531 -59.21875 41.375 -59.21875 C 42.507812 -58.9375 43.535156 -58.207031 44.453125 -57.03125 C 45.367188 -55.851562 46.140625 -54.578125 46.765625 -53.203125 C 47.398438 -51.835938 47.804688 -50.753906 47.984375 -49.953125 L 55.609375 -16.390625 L 57.5 -3.953125 L 57.5 -1.28125 C 57.5 -1.050781 57.210938 -0.847656 56.640625 -0.671875 C 56.066406 -0.503906 55.476562 -0.378906 54.875 -0.296875 C 54.28125 -0.210938 53.898438 -0.171875 53.734375 -0.171875 C 51.328125 -0.171875 48.9375 -0.285156 46.5625 -0.515625 C 44.1875 -0.742188 41.828125 -0.882812 39.484375 -0.9375 C 38.960938 -1.050781 38.675781 -1.3125 38.625 -1.71875 L 36.8125 -13.046875 C 36.1875 -12.816406 35.285156 -12.671875 34.109375 -12.609375 C 32.941406 -12.554688 31.769531 -12.539062 30.59375 -12.5625 C 29.425781 -12.59375 28.46875 -12.609375 27.71875 -12.609375 C 27.488281 -12.609375 27.054688 -12.59375 26.421875 -12.5625 C 25.796875 -12.539062 25.171875 -12.53125 24.546875 -12.53125 C 23.921875 -12.53125 23.492188 -12.5 23.265625 -12.4375 C 23.203125 -12.101562 23.070312 -11.488281 22.875 -10.59375 C 22.675781 -9.707031 22.460938 -8.722656 22.234375 -7.640625 C 22.003906 -6.554688 21.800781 -5.566406 21.625 -4.671875 C 21.457031 -3.785156 21.316406 -3.171875 21.203125 -2.828125 C 21.203125 -2.710938 21.171875 -2.453125 21.109375 -2.046875 C 21.054688 -1.648438 21.03125 -1.394531 21.03125 -1.28125 C 20.800781 -1 20.5 -0.800781 20.125 -0.6875 C 19.75 -0.570312 19.363281 -0.457031 18.96875 -0.34375 C 18.394531 -0.34375 17.390625 -0.328125 15.953125 -0.296875 C 14.523438 -0.265625 12.953125 -0.21875 11.234375 -0.15625 C 9.523438 -0.101562 7.941406 -0.0625 6.484375 -0.03125 C 5.023438 -0.0078125 4.007812 0 3.4375 0 C 3.4375 0 3.421875 0 3.390625 0 C 3.359375 0 3.34375 0 3.34375 0 C 3.175781 0 2.863281 -0.0820312 2.40625 -0.25 C 1.945312 -0.425781 1.71875 -0.597656 1.71875 -0.765625 Z M 27.125 -25.828125 L 27.890625 -25.578125 L 34.59375 -25.578125 L 31.671875 -44.03125 L 31.328125 -44.03125 Z M 27.125 -25.828125 "/></g></g></g><g fill="#ff3131" fill-opacity="1"><g transform="translate(193.893459, 216.80327)"><g><path d="M 2.578125 -25.3125 C 2.578125 -29.488281 2.929688 -33.664062 3.640625 -37.84375 C 4.359375 -42.019531 5.773438 -45.96875 7.890625 -49.6875 C 8.578125 -50.894531 9.550781 -52.097656 10.8125 -53.296875 C 12.070312 -54.503906 13.472656 -55.578125 15.015625 -56.515625 C 16.566406 -57.460938 18.023438 -58.109375 19.390625 -58.453125 C 19.796875 -58.566406 20.351562 -58.707031 21.0625 -58.875 C 21.78125 -59.050781 22.453125 -59.222656 23.078125 -59.390625 C 23.710938 -59.566406 24.085938 -59.65625 24.203125 -59.65625 C 25.234375 -59.882812 26.265625 -60.097656 27.296875 -60.296875 C 28.328125 -60.492188 29.382812 -60.59375 30.46875 -60.59375 C 32.1875 -60.59375 34.085938 -60.378906 36.171875 -59.953125 C 38.265625 -59.523438 40.253906 -58.851562 42.140625 -57.9375 C 44.023438 -57.019531 45.515625 -55.847656 46.609375 -54.421875 C 47.523438 -53.273438 48.335938 -51.925781 49.046875 -50.375 C 49.765625 -48.832031 50.207031 -47.316406 50.375 -45.828125 L 51.578125 -35.796875 C 51.578125 -35.734375 51.578125 -35.429688 51.578125 -34.890625 C 51.578125 -34.347656 51.578125 -33.929688 51.578125 -33.640625 C 51.578125 -33.410156 51.578125 -32.976562 51.578125 -32.34375 C 51.578125 -31.71875 51.578125 -31.347656 51.578125 -31.234375 C 51.296875 -27.578125 50.722656 -23.914062 49.859375 -20.25 C 49.003906 -16.59375 47.675781 -13.234375 45.875 -10.171875 C 44.070312 -7.109375 41.582031 -4.675781 38.40625 -2.875 C 35.226562 -1.070312 31.179688 -0.195312 26.265625 -0.25 C 24.609375 -0.25 22.734375 -0.378906 20.640625 -0.640625 C 18.554688 -0.898438 16.46875 -1.414062 14.375 -2.1875 C 12.289062 -2.957031 10.375 -4.144531 8.625 -5.75 C 6.882812 -7.351562 5.5 -9.523438 4.46875 -12.265625 C 4.40625 -12.441406 4.316406 -12.671875 4.203125 -12.953125 C 4.085938 -13.242188 4.03125 -13.414062 4.03125 -13.46875 L 2.65625 -21.03125 C 2.65625 -21.144531 2.640625 -21.742188 2.609375 -22.828125 C 2.585938 -23.921875 2.578125 -24.75 2.578125 -25.3125 Z M 20.078125 -30.890625 C 20.078125 -29.921875 20.148438 -28.660156 20.296875 -27.109375 C 20.441406 -25.566406 20.726562 -24.007812 21.15625 -22.4375 C 21.582031 -20.863281 22.210938 -19.535156 23.046875 -18.453125 C 23.878906 -17.367188 24.976562 -16.828125 26.34375 -16.828125 C 27.488281 -16.828125 28.5625 -17.425781 29.5625 -18.625 C 30.5625 -19.820312 31.234375 -20.910156 31.578125 -21.890625 C 31.691406 -22.171875 31.890625 -22.679688 32.171875 -23.421875 C 32.460938 -24.171875 32.738281 -24.929688 33 -25.703125 C 33.257812 -26.472656 33.414062 -26.972656 33.46875 -27.203125 C 33.53125 -27.316406 33.601562 -27.570312 33.6875 -27.96875 C 33.769531 -28.375 33.84375 -28.632812 33.90625 -28.75 C 34.070312 -29.664062 34.15625 -30.523438 34.15625 -31.328125 C 34.15625 -32.128906 34.15625 -32.988281 34.15625 -33.90625 C 34.15625 -34.1875 34.15625 -34.796875 34.15625 -35.734375 C 34.15625 -36.679688 34.15625 -37.300781 34.15625 -37.59375 C 33.875 -39.707031 33.203125 -41.28125 32.140625 -42.3125 C 31.085938 -43.34375 29.882812 -43.859375 28.53125 -43.859375 C 27.1875 -43.859375 25.867188 -43.367188 24.578125 -42.390625 C 23.296875 -41.421875 22.222656 -39.976562 21.359375 -38.0625 C 20.503906 -36.144531 20.078125 -33.753906 20.078125 -30.890625 Z M 20.078125 -30.890625 "/></g></g></g><g fill="#ff3131" fill-opacity="1"><g transform="translate(248.055379, 216.80327)"><g><path d="M 4.640625 -0.171875 C 4.460938 -1.316406 4.375 -2.546875 4.375 -3.859375 C 4.375 -5.179688 4.375 -6.382812 4.375 -7.46875 C 4.375 -7.925781 4.390625 -8.597656 4.421875 -9.484375 C 4.453125 -10.367188 4.46875 -10.84375 4.46875 -10.90625 L 7.890625 -57.328125 C 7.953125 -57.785156 8.007812 -58.269531 8.0625 -58.78125 C 8.125 -59.300781 8.441406 -59.648438 9.015625 -59.828125 C 9.359375 -59.941406 9.929688 -60.054688 10.734375 -60.171875 C 11.535156 -60.285156 11.992188 -60.34375 12.109375 -60.34375 L 25.140625 -60.34375 C 25.429688 -60.34375 26.003906 -60.195312 26.859375 -59.90625 C 27.722656 -59.625 28.15625 -59.3125 28.15625 -58.96875 L 28.15625 -54.421875 L 24.96875 -15.96875 L 26.265625 -15.96875 L 33.5625 -17.25 L 37.328125 -17.25 C 37.554688 -17.25 37.914062 -17.148438 38.40625 -16.953125 C 38.894531 -16.753906 39.140625 -16.507812 39.140625 -16.21875 C 39.140625 -16.164062 39.140625 -16.140625 39.140625 -16.140625 C 39.140625 -15.960938 39.082031 -15.457031 38.96875 -14.625 C 38.851562 -13.800781 38.75 -12.972656 38.65625 -12.140625 C 38.570312 -11.316406 38.53125 -10.789062 38.53125 -10.5625 C 38.53125 -10.15625 38.515625 -9.394531 38.484375 -8.28125 C 38.460938 -7.164062 38.4375 -6.050781 38.40625 -4.9375 C 38.375 -3.820312 38.359375 -3.0625 38.359375 -2.65625 C 38.304688 -2.375 38.109375 -2.101562 37.765625 -1.84375 C 37.421875 -1.582031 37.101562 -1.394531 36.8125 -1.28125 C 36.53125 -1.226562 36.015625 -1.144531 35.265625 -1.03125 C 34.523438 -0.914062 34.070312 -0.828125 33.90625 -0.765625 L 16.140625 0.765625 C 16.078125 0.765625 15.703125 0.765625 15.015625 0.765625 C 14.328125 0.765625 13.84375 0.765625 13.5625 0.765625 C 13.15625 0.765625 12.523438 0.765625 11.671875 0.765625 C 10.816406 0.765625 10.332031 0.765625 10.21875 0.765625 C 9.875 0.765625 9.210938 0.734375 8.234375 0.671875 C 7.265625 0.617188 6.632812 0.566406 6.34375 0.515625 C 6.125 0.515625 5.8125 0.457031 5.40625 0.34375 C 5.007812 0.226562 4.753906 0.0546875 4.640625 -0.171875 Z M 4.640625 -0.171875 "/></g></g></g><path stroke-linecap="round" transform="matrix(-0.75, -0.000000000000000186, 0.000000000000000186, -0.75, 192.532302, 169.670672)" fill="none" stroke-linejoin="miter" d="M 8.001404 7.998397 L 59.121199 7.998397 " stroke="#ff3131" stroke-width="16" stroke-opacity="1" stroke-miterlimit="4"/></svg>