<?xml version="1.0" encoding="UTF-8" standalone="no"?>
<svg
   width="262.41928"
   zoomAndPan="magnify"
   viewBox="0 0 196.81446 61.624997"
   height="82.166664"
   preserveAspectRatio="xMidYMid meet"
   version="1.0"
   id="svg44"
   sodipodi:docname="Text logo.svg"
   inkscape:version="1.1.2 (0a00cf5339, 2022-02-04)"
   xmlns:inkscape="http://www.inkscape.org/namespaces/inkscape"
   xmlns:sodipodi="http://sodipodi.sourceforge.net/DTD/sodipodi-0.dtd"
   xmlns="http://www.w3.org/2000/svg"
   xmlns:svg="http://www.w3.org/2000/svg">
  <sodipodi:namedview
     id="namedview46"
     pagecolor="#ffffff"
     bordercolor="#666666"
     borderopacity="1.0"
     inkscape:pageshadow="2"
     inkscape:pageopacity="0.0"
     inkscape:pagecheckerboard="0"
     showgrid="false"
     inkscape:zoom="1.6287582"
     inkscape:cx="55.870787"
     inkscape:cy="42.363564"
     inkscape:window-width="1536"
     inkscape:window-height="800"
     inkscape:window-x="0"
     inkscape:window-y="27"
     inkscape:window-maximized="1"
     inkscape:current-layer="svg44" />
  <defs
     id="defs4">
    <g
       id="g2" />
  </defs>
  <g
     fill="#ff3131"
     fill-opacity="1"
     id="g16"
     transform="translate(-90.381554,-155.94389)">
    <g
       transform="translate(86.084679,216.80327)"
       id="g14">
      <g
         id="g12">
        <path
           d="m 5.921875,-1.03125 -1.625,-59.046875 c 0.113281,-0.0625 0.398437,-0.148437 0.859375,-0.265625 0.457031,-0.113281 0.742188,-0.195312 0.859375,-0.25 3.195313,0.05469 6.351563,0.02344 9.46875,-0.09375 3.125,-0.113281 6.257813,-0.171875 9.40625,-0.171875 2.457031,0 4.945313,0.230469 7.46875,0.6875 2.519531,0.460937 4.851563,1.320313 7,2.578125 2.144531,1.261719 3.875,3.0625 5.1875,5.40625 0.507813,0.980469 0.960937,1.839844 1.359375,2.578125 0.40625,0.742187 0.695312,1.601563 0.875,2.578125 0,0.230469 0.0078,0.703125 0.03125,1.421875 0.03125,0.710937 0.04687,1.179687 0.04687,1.40625 0,1.773437 -0.117187,3.359375 -0.34375,4.765625 -0.230469,1.40625 -0.574219,3.023438 -1.03125,4.84375 -0.855469,3.4375 -2.386719,6.5 -4.59375,9.1875 -2.199219,2.6875 -5.042969,4.605469 -8.53125,5.75 -0.0625,0.0625 -0.125,0.09375 -0.1875,0.09375 -0.05469,0 -0.105469,0.02734 -0.15625,0.07813 -0.574219,0.230469 -1.21875,0.460937 -1.9375,0.6875 -0.710937,0.230469 -1.40625,0.34375 -2.09375,0.34375 -0.179687,0 -0.585937,0 -1.21875,0 -0.625,0 -1.242187,0 -1.84375,0 -0.59375,0 -1.007813,0 -1.234375,0 0,0 -0.01563,0.148437 -0.04687,0.4375 -0.02344,0.28125 -0.03125,0.449219 -0.03125,0.5 l 0.34375,15.625 c 0.113281,0.75 -0.390625,1.242187 -1.515625,1.46875 -1.117188,0.230469 -2.589844,0.320313 -4.421875,0.265625 C 16.191406,-0.21875 14.21875,-0.347656 12.09375,-0.546875 9.976562,-0.753906 7.921875,-0.914062 5.921875,-1.03125 Z m 16.3125,-48.0625 v 16.3125 c 0.914063,0 1.84375,-0.382812 2.78125,-1.15625 0.945313,-0.78125 1.75,-1.695312 2.40625,-2.75 0.65625,-1.0625 0.984375,-1.992188 0.984375,-2.796875 v -4.109375 c 0,0 -0.03125,-0.07031 -0.09375,-0.21875 -0.05469,-0.144531 -0.07813,-0.242188 -0.07813,-0.296875 -0.05469,-0.113281 -0.152344,-0.3125 -0.296875,-0.59375 -0.148438,-0.289063 -0.246094,-0.46875 -0.296875,-0.53125 -0.0625,-0.113281 -0.109375,-0.195313 -0.140625,-0.25 -0.02344,-0.0625 -0.0625,-0.117187 -0.125,-0.171875 -0.742188,-1.320312 -1.371094,-2.210938 -1.890625,-2.671875 -0.511719,-0.457031 -1.59375,-0.710937 -3.25,-0.765625 z m 0,0"
           id="path10" />
      </g>
    </g>
  </g>
  <g
     fill="#ff3131"
     fill-opacity="1"
     id="g24"
     transform="translate(-90.381554,-155.94389)">
    <g
       transform="translate(134.66729,216.80327)"
       id="g22">
      <g
         id="g20">
        <path
           d="M 1.71875,-0.765625 18.703125,-54.5 c 0.289063,-1.832031 0.960937,-3.019531 2.015625,-3.5625 1.0625,-0.539062 2.679688,-0.84375 4.859375,-0.90625 0.226563,-0.05078 0.972656,-0.09375 2.234375,-0.125 1.257812,-0.03125 2.617188,-0.05469 4.078125,-0.07813 1.457031,-0.03125 2.53125,-0.04687 3.21875,-0.04687 0.113281,0 0.566406,0 1.359375,0 0.800781,0 1.375,0 1.71875,0 0.289062,0 0.835938,0 1.640625,0 0.800781,0 1.316406,0 1.546875,0 1.132812,0.28125 2.160156,1.011719 3.078125,2.1875 0.914063,1.179688 1.6875,2.453125 2.3125,3.828125 0.632813,1.367187 1.039063,2.449219 1.21875,3.25 l 7.625,33.5625 1.890625,12.4375 v 2.671875 c 0,0.230469 -0.289062,0.433594 -0.859375,0.609375 -0.574219,0.167969 -1.164063,0.292969 -1.765625,0.375 -0.59375,0.085937 -0.976562,0.125 -1.140625,0.125 -2.40625,0 -4.796875,-0.113281 -7.171875,-0.34375 C 44.1875,-0.742188 41.828125,-0.882812 39.484375,-0.9375 38.960938,-1.050781 38.675781,-1.3125 38.625,-1.71875 l -1.8125,-11.328125 c -0.625,0.230469 -1.527344,0.375 -2.703125,0.4375 -1.167969,0.05469 -2.339844,0.07031 -3.515625,0.04687 -1.167969,-0.03125 -2.125,-0.04687 -2.875,-0.04687 -0.230469,0 -0.664062,0.01563 -1.296875,0.04687 -0.625,0.02344 -1.25,0.03125 -1.875,0.03125 -0.625,0 -1.054687,0.03125 -1.28125,0.09375 -0.0625,0.335938 -0.195313,0.949219 -0.390625,1.84375 -0.199219,0.886719 -0.414062,1.871094 -0.640625,2.953125 -0.230469,1.085937 -0.433594,2.074219 -0.609375,2.96875 -0.167969,0.886719 -0.308594,1.5 -0.421875,1.84375 0,0.117187 -0.03125,0.375 -0.09375,0.78125 -0.05469,0.398437 -0.07813,0.652344 -0.07813,0.765625 C 20.800781,-1 20.5,-0.800781 20.125,-0.6875 c -0.375,0.117188 -0.761719,0.230469 -1.15625,0.34375 -0.574219,0 -1.578125,0.015625 -3.015625,0.046875 -1.429687,0.03125 -3,0.078125 -4.71875,0.140625 -1.710937,0.054688 -3.292969,0.09375 -4.75,0.125 C 5.023438,-0.0078125 4.007812,0 3.4375,0 3.4375,0 3.421875,0 3.390625,0 3.359375,0 3.34375,0 3.34375,0 3.175781,0 2.863281,-0.0820312 2.40625,-0.25 1.945312,-0.425781 1.71875,-0.597656 1.71875,-0.765625 Z m 25.40625,-25.0625 0.765625,0.25 H 34.59375 L 31.671875,-44.03125 h -0.34375 z m 0,0"
           id="path18" />
      </g>
    </g>
  </g>
  <g
     fill="#ff3131"
     fill-opacity="1"
     id="g32"
     transform="translate(-90.381554,-155.94389)">
    <g
       transform="translate(193.89346,216.80327)"
       id="g30">
      <g
         id="g28">
        <path
           d="m 2.578125,-25.3125 c 0,-4.175781 0.351563,-8.351562 1.0625,-12.53125 0.71875,-4.175781 2.132813,-8.125 4.25,-11.84375 0.6875,-1.207031 1.660156,-2.410156 2.921875,-3.609375 1.257812,-1.207031 2.660156,-2.28125 4.203125,-3.21875 1.550781,-0.945313 3.007813,-1.59375 4.375,-1.9375 0.40625,-0.113281 0.960937,-0.253906 1.671875,-0.421875 0.71875,-0.175781 1.390625,-0.347656 2.015625,-0.515625 0.632813,-0.175781 1.007813,-0.265625 1.125,-0.265625 1.03125,-0.226562 2.0625,-0.441406 3.09375,-0.640625 1.03125,-0.195313 2.085937,-0.296875 3.171875,-0.296875 1.71875,0 3.617188,0.214844 5.703125,0.640625 2.09375,0.429687 4.082031,1.101563 5.96875,2.015625 1.882813,0.917969 3.375,2.089844 4.46875,3.515625 0.914063,1.148437 1.726563,2.496094 2.4375,4.046875 0.71875,1.542969 1.160156,3.058594 1.328125,4.546875 l 1.203125,10.03125 c 0,0.0625 0,0.367187 0,0.90625 0,0.542969 0,0.960937 0,1.25 0,0.230469 0,0.664063 0,1.296875 0,0.625 0,0.996094 0,1.109375 -0.28125,3.65625 -0.855469,7.320313 -1.71875,10.984375 -0.855469,3.65625 -2.183594,7.015625 -3.984375,10.078125 -1.804688,3.0625 -4.292969,5.496094 -7.46875,7.296875 -3.179688,1.804688 -7.226562,2.679688 -12.140625,2.625 -1.65625,0 -3.53125,-0.128906 -5.625,-0.390625 C 18.554688,-0.898438 16.46875,-1.414062 14.375,-2.1875 12.289062,-2.957031 10.375,-4.144531 8.625,-5.75 6.882812,-7.351562 5.5,-9.523438 4.46875,-12.265625 4.40625,-12.441406 4.316406,-12.671875 4.203125,-12.953125 4.085938,-13.242188 4.03125,-13.414062 4.03125,-13.46875 l -1.375,-7.5625 c 0,-0.113281 -0.015625,-0.710938 -0.046875,-1.796875 C 2.585938,-23.921875 2.578125,-24.75 2.578125,-25.3125 Z m 17.5,-5.578125 c 0,0.96875 0.07031,2.230469 0.21875,3.78125 0.144531,1.542969 0.429687,3.101563 0.859375,4.671875 0.425781,1.574219 1.054688,2.902344 1.890625,3.984375 0.832031,1.085937 1.929687,1.625 3.296875,1.625 1.144531,0 2.21875,-0.597656 3.21875,-1.796875 1,-1.195312 1.671875,-2.285156 2.015625,-3.265625 0.113281,-0.28125 0.3125,-0.789063 0.59375,-1.53125 0.289063,-0.75 0.566406,-1.507813 0.828125,-2.28125 0.257812,-0.769531 0.414062,-1.269531 0.46875,-1.5 0.0625,-0.113281 0.132812,-0.367187 0.21875,-0.765625 0.08203,-0.40625 0.15625,-0.664062 0.21875,-0.78125 0.164062,-0.914062 0.25,-1.773438 0.25,-2.578125 0,-0.800781 0,-1.660156 0,-2.578125 0,-0.28125 0,-0.890625 0,-1.828125 0,-0.945313 0,-1.566406 0,-1.859375 -0.28125,-2.113281 -0.953125,-3.6875 -2.015625,-4.71875 -1.054687,-1.03125 -2.257813,-1.546875 -3.609375,-1.546875 -1.34375,0 -2.664062,0.492187 -3.953125,1.46875 -1.28125,0.96875 -2.355469,2.414063 -3.21875,4.328125 -0.855469,1.917969 -1.28125,4.308594 -1.28125,7.171875 z m 0,0"
           id="path26" />
      </g>
    </g>
  </g>
  <g
     fill="#ff3131"
     fill-opacity="1"
     id="g40"
     transform="translate(-90.381554,-155.94389)">
    <g
       transform="translate(248.05538,216.80327)"
       id="g38">
      <g
         id="g36">
        <path
           d="M 4.640625,-0.171875 C 4.460938,-1.316406 4.375,-2.546875 4.375,-3.859375 c 0,-1.320313 0,-2.523437 0,-3.609375 0,-0.457031 0.015625,-1.128906 0.046875,-2.015625 0.03125,-0.882813 0.046875,-1.359375 0.046875,-1.421875 l 3.421875,-46.421875 c 0.0625,-0.457031 0.117187,-0.941406 0.171875,-1.453125 0.0625,-0.519531 0.378906,-0.867188 0.953125,-1.046875 0.34375,-0.113281 0.914063,-0.226563 1.71875,-0.34375 0.800781,-0.113281 1.257813,-0.171875 1.375,-0.171875 h 13.03125 c 0.289063,0 0.863281,0.148438 1.71875,0.4375 0.863281,0.28125 1.296875,0.59375 1.296875,0.9375 v 4.546875 l -3.1875,38.453125 h 1.296875 L 33.5625,-17.25 h 3.765625 c 0.226563,0 0.585937,0.101562 1.078125,0.296875 0.488281,0.199219 0.734375,0.445313 0.734375,0.734375 0,0.05469 0,0.07813 0,0.07813 0,0.179687 -0.05859,0.683594 -0.171875,1.515625 -0.117188,0.824219 -0.21875,1.652344 -0.3125,2.484375 -0.08594,0.824219 -0.125,1.351563 -0.125,1.578125 0,0.40625 -0.01563,1.167969 -0.04687,2.28125 -0.02344,1.117188 -0.04687,2.230469 -0.07813,3.34375 -0.03125,1.117188 -0.04687,1.875 -0.04687,2.28125 -0.05469,0.28125 -0.25,0.554688 -0.59375,0.8125 -0.34375,0.261719 -0.664063,0.449219 -0.953125,0.5625 -0.28125,0.054688 -0.796875,0.136719 -1.546875,0.25 -0.742187,0.117188 -1.195313,0.203125 -1.359375,0.265625 L 16.14063,0.76563 c -0.0625,0 -0.4375,0 -1.125,0 -0.6875,0 -1.171875,0 -1.453125,0 -0.40625,0 -1.039062,0 -1.890625,0 -0.855469,0 -1.339844,0 -1.453125,0 -0.34375,0 -1.007812,-0.03125 -1.984375,-0.09375 C 7.265625,0.617188 6.632812,0.566406 6.34375,0.515625 6.125,0.515625 5.8125,0.457031 5.40625,0.34375 5.007812,0.226562 4.753906,0.0546875 4.640625,-0.171875 Z m 0,0"
           id="path34" />
      </g>
    </g>
  </g>
  <path
     stroke-linecap="round"
     fill="none"
     stroke-linejoin="miter"
     d="M 96.149693,7.7279773 H 57.809847"
     stroke="#ff3131"
     stroke-width="12"
     stroke-opacity="1"
     stroke-miterlimit="4"
     id="path42" />
</svg>
